<?xml version="1.0" standalone="no"?>
<!DOCTYPE svg PUBLIC "-//W3C//DTD SVG 20010904//EN"
 "http://www.w3.org/TR/2001/REC-SVG-20010904/DTD/svg10.dtd">
<svg version="1.0" xmlns="http://www.w3.org/2000/svg"
 width="800.000000pt" height="800.000000pt" viewBox="0 0 800.000000 800.000000"
 preserveAspectRatio="xMidYMid meet">
<metadata>
Created by potrace 1.14, written by Peter Selinger 2001-2017
</metadata>
<g transform="translate(0.000000,800.000000) scale(0.100000,-0.100000)"
fill="#000000" stroke="none">
<path d="M1820 7989 c-226 -20 -492 -94 -697 -196 -584 -288 -977 -814 -1095
-1468 l-23 -130 0 -2195 0 -2195 23 -130 c167 -924 901 -1595 1822 -1665 185
-14 4151 -14 4315 1 916 78 1641 746 1807 1664 l23 130 0 2195 0 2195 -23 130
c-167 924 -901 1595 -1822 1665 -164 12 -4187 11 -4330 -1z m2555 -2039 c-75
-75 -95 -90 -121 -90 -28 0 -55 -24 -235 -208 -175 -179 -206 -215 -216 -253
-14 -53 -48 -88 -98 -99 -159 -36 -239 181 -93 256 15 8 35 14 45 14 10 0 120
102 253 235 l235 235 160 0 160 0 -90 -90z m412 -52 c137 -137 162 -174 144
-219 -5 -13 -70 -85 -145 -159 l-136 -135 -185 185 -185 185 144 144 145 144
42 -6 c38 -5 55 -19 176 -139z m-419 -431 l182 -182 -513 -512 -512 -511 -224
-46 c-124 -25 -227 -43 -229 -41 -3 2 15 105 38 227 l44 223 510 513 c281 281
513 512 516 512 3 0 87 -82 188 -183z m1072 -2412 l0 -385 -87 0 -86 0 6 137
c4 75 7 248 7 385 l0 248 80 0 80 0 0 -385z m530 344 c158 -48 248 -251 206
-466 -26 -133 -81 -210 -185 -256 -60 -26 -173 -26 -233 1 -87 38 -149 110
-173 203 -61 230 18 456 179 513 50 18 155 20 206 5z m-4569 -224 c74 -123
136 -225 139 -225 3 0 65 100 137 223 l131 222 71 3 71 3 1 -278 c1 -153 2
-316 2 -363 l2 -85 -82 -3 -82 -3 0 212 c0 116 -1 213 -3 215 -4 4 -121 -190
-163 -271 -38 -71 -50 -82 -90 -80 -30 0 -39 7 -65 48 -16 26 -30 50 -30 53 0
9 -152 254 -157 254 -3 0 -3 -97 1 -215 l7 -215 -87 0 -87 0 6 137 c4 75 7
239 7 365 l0 228 69 0 68 0 134 -225z m3614 190 c95 -48 127 -129 89 -225 -9
-22 -29 -51 -46 -63 l-29 -23 38 -25 c49 -32 80 -80 89 -136 9 -63 -9 -114
-55 -156 -66 -59 -111 -67 -384 -67 l-240 0 6 137 c4 75 7 239 7 365 l0 229
233 -3 232 -3 60 -30z m-1882 -155 c47 -22 107 -80 107 -103 0 -7 -26 -26 -58
-43 l-57 -31 -23 28 c-63 78 -203 54 -242 -41 -19 -47 -8 -135 21 -166 65 -70
149 -73 219 -9 l25 23 63 -28 c34 -16 62 -34 62 -41 0 -6 -21 -33 -48 -59
-131 -132 -382 -96 -484 68 -15 25 -22 57 -26 122 -4 82 -3 94 22 144 54 110
166 170 302 162 44 -3 88 -12 117 -26z m557 -44 l0 -74 -39 0 c-52 -1 -97 -25
-121 -65 -18 -28 -20 -51 -20 -194 l0 -163 -87 0 -86 0 6 137 c4 75 7 201 7
280 l0 143 75 0 75 0 0 -35 0 -36 38 30 c20 17 55 35 77 40 77 18 75 19 75
-63z m457 59 c78 -23 142 -72 177 -135 28 -50 31 -63 31 -140 0 -100 -23 -159
-83 -211 -64 -56 -116 -74 -217 -74 -73 0 -100 5 -140 23 -55 25 -105 69 -137
120 -25 41 -37 181 -19 235 49 148 225 230 388 182z m2513 -10 c17 -9 40 -25
51 -36 19 -19 19 -19 19 16 l0 35 75 0 75 0 3 -187 c4 -361 4 -372 -25 -434
-46 -100 -139 -149 -286 -149 -94 0 -178 17 -242 50 l-40 20 25 48 c41 78 37
76 81 54 53 -27 149 -45 195 -38 84 13 115 44 126 123 6 47 6 48 -13 31 -65
-57 -198 -68 -289 -24 -63 31 -117 89 -133 145 -17 53 -15 162 3 204 30 72 98
132 174 154 56 16 159 10 201 -12z m-4383 -172 c41 -101 78 -183 82 -183 3 0
40 82 81 181 41 100 80 183 86 186 6 2 41 3 77 1 l65 -3 -77 -185 c-43 -102
-99 -237 -124 -300 -64 -156 -99 -215 -149 -247 -37 -25 -50 -28 -127 -28 -87
0 -161 22 -161 49 0 6 13 34 30 62 l29 52 40 -20 c49 -24 92 -17 121 19 11 14
20 30 20 35 0 5 -15 46 -34 91 -146 346 -196 467 -196 472 0 3 36 5 81 3 l81
-3 75 -182z"/>
<path d="M3401 4616 c-68 -68 -74 -78 -86 -137 -8 -35 -12 -66 -10 -68 2 -2
33 2 68 9 61 11 68 16 138 86 l74 74 -55 55 -55 55 -74 -74z"/>
<path d="M5807 3252 c-15 -9 -38 -37 -50 -62 -19 -38 -22 -62 -22 -155 0 -99
3 -114 25 -154 49 -87 140 -103 206 -37 83 83 67 355 -25 409 -37 22 -98 21
-134 -1z"/>
<path d="M4658 3274 c-5 -4 -8 -45 -8 -91 l0 -85 124 4 c116 3 126 5 151 28
36 34 32 94 -8 124 -24 18 -46 21 -140 24 -62 2 -115 0 -119 -4z"/>
<path d="M4650 2928 c0 -29 3 -70 6 -90 l7 -38 117 0 c64 0 131 5 148 11 52
18 76 74 51 121 -19 36 -69 48 -204 48 l-125 0 0 -52z"/>
<path d="M3990 3092 c-19 -9 -45 -33 -58 -52 -20 -30 -23 -45 -20 -98 4 -56 8
-66 40 -99 31 -31 45 -37 90 -41 44 -3 59 0 88 20 69 46 88 129 48 208 -38 73
-115 99 -188 62z"/>
<path d="M6505 3090 c-50 -24 -75 -65 -75 -120 0 -85 53 -134 145 -134 95 0
149 49 149 134 0 111 -113 173 -219 120z"/>
</g>
</svg>
